<svg xmlns="http://www.w3.org/2000/svg" width="720" height="210" viewBox="0 0 720 210" role="img" aria-label="dotfiles">
  <defs>
    <linearGradient id="title" x1="0" y1="0" x2="1" y2="0">
      <stop offset="0%" stop-color="#7AA2F7"/>
      <stop offset="50%" stop-color="#BB9AF7"/>
      <stop offset="100%" stop-color="#7DCFFF"/>
    </linearGradient>
  </defs>
  <!-- Terminal window -->
  <rect x="0.5" y="0.5" width="719" height="209" rx="12" fill="#1A1B26" stroke="#414868"/>
  <!-- Title bar -->
  <circle cx="24" cy="24" r="6" fill="#F7768E"/>
  <circle cx="44" cy="24" r="6" fill="#E0AF68"/>
  <circle cx="64" cy="24" r="6" fill="#9ECE6A"/>
  <text x="360" y="29" text-anchor="middle" font-family="ui-monospace, 'SF Mono', Menlo, Consolas, monospace" font-size="13" fill="#565F89">mjun@local: ~/.dotfiles</text>
  <line x1="0.5" y1="44" x2="719.5" y2="44" stroke="#2F3549"/>
  <!-- Prompt -->
  <text x="32" y="84" font-family="ui-monospace, 'SF Mono', Menlo, Consolas, monospace" font-size="16">
    <tspan fill="#9ECE6A">$</tspan>
    <tspan fill="#C0CAF5" dx="8">cd ~/.dotfiles</tspan>
  </text>
  <!-- Title -->
  <path fill="url(#title)" d="M238.7 129.8V112.4H247.2V158.0H238.7V153.1Q237.3 156.0 235.1 157.4Q232.9 158.8 230.0 158.8Q224.4 158.8 221.2 154.3Q218.1 149.8 218.1 141.6Q218.1 133.3 221.3 128.8Q224.4 124.4 230.3 124.4Q232.9 124.4 235.0 125.8Q237.1 127.1 238.7 129.8ZM226.7 141.7Q226.7 146.4 228.3 149.1Q229.9 151.8 232.7 151.8Q235.5 151.8 237.1 149.1Q238.7 146.4 238.7 141.7Q238.7 136.9 237.1 134.2Q235.5 131.5 232.7 131.5Q229.9 131.5 228.3 134.2Q226.7 136.9 226.7 141.7ZM269.7 131.4Q266.6 131.4 264.8 134.1Q263.1 136.8 263.1 141.6Q263.1 146.5 264.8 149.2Q266.6 151.9 269.7 151.9Q272.8 151.9 274.5 149.2Q276.3 146.5 276.3 141.6Q276.3 136.8 274.5 134.1Q272.8 131.4 269.7 131.4ZM254.5 141.6Q254.5 133.7 258.6 129.0Q262.7 124.4 269.7 124.4Q276.7 124.4 280.8 129.0Q284.9 133.7 284.9 141.6Q284.9 149.6 280.8 154.2Q276.7 158.8 269.7 158.8Q262.7 158.8 258.6 154.2Q254.5 149.6 254.5 141.6ZM308.0 115.9V125.2H319.2V131.8H308.0V147.3Q308.0 149.5 309.0 150.5Q310.1 151.4 312.6 151.4H319.2V158.0H312.0Q304.6 158.0 302.0 155.6Q299.4 153.3 299.4 146.9V131.8H291.0V125.2H299.4V115.9ZM345.5 122.3V125.2H355.6V131.8H345.5V158.0H336.9V131.8H329.0V125.2H336.9V122.9Q336.9 117.0 339.4 114.7Q341.9 112.4 348.5 112.4H355.6V119.0H348.9Q347.0 119.0 346.3 119.7Q345.6 120.4 345.5 122.3ZM366.5 125.2H383.5V151.4H394.1V158.0H364.2V151.4H374.9V131.8H366.5ZM374.9 109.2H383.5V119.2H374.9ZM407.5 144.3V119.0H398.8V112.4H416.0V144.3Q416.0 148.2 417.2 149.8Q418.4 151.4 421.3 151.4H428.2V158.0H418.9Q412.8 158.0 410.1 154.8Q407.5 151.7 407.5 144.3ZM464.5 156.4Q461.5 157.6 458.4 158.2Q455.3 158.8 451.9 158.8Q443.6 158.8 439.3 154.4Q434.9 150.0 434.9 141.7Q434.9 133.7 439.1 129.1Q443.3 124.4 450.6 124.4Q457.9 124.4 461.9 128.7Q465.9 133.0 465.9 140.9V144.4H443.7Q443.7 148.2 446.0 150.1Q448.2 152.1 452.7 152.1Q455.7 152.1 458.5 151.2Q461.4 150.4 464.5 148.5ZM457.3 137.9Q457.2 134.5 455.5 132.8Q453.8 131.0 450.6 131.0Q447.6 131.0 445.8 132.8Q444.1 134.7 443.8 138.0ZM497.4 126.2V133.7Q495.0 132.2 492.5 131.4Q489.9 130.6 487.3 130.6Q484.5 130.6 483.0 131.5Q481.5 132.3 481.5 133.9Q481.5 136.3 487.8 137.8L488.1 137.8L490.6 138.4Q495.3 139.5 497.4 142.0Q499.6 144.5 499.6 148.7Q499.6 153.8 496.3 156.3Q493.0 158.8 486.3 158.8Q483.3 158.8 480.2 158.3Q477.1 157.8 473.9 156.8V149.3Q476.8 150.9 479.7 151.8Q482.7 152.6 485.4 152.6Q488.4 152.6 490.0 151.7Q491.5 150.9 491.5 149.2Q491.5 147.5 490.4 146.7Q489.3 145.8 485.2 144.8L482.8 144.3Q477.9 143.1 475.7 140.8Q473.4 138.4 473.4 134.4Q473.4 129.7 476.8 127.0Q480.3 124.4 486.5 124.4Q489.3 124.4 492.0 124.9Q494.8 125.3 497.4 126.2Z"/>
  <!-- Cursor -->
  <rect x="516" y="118" width="26" height="46" fill="#C0CAF5">
    <animate attributeName="opacity" values="1;1;0;0" keyTimes="0;0.5;0.5;1" dur="1.2s" repeatCount="indefinite"/>
  </rect>
</svg>
